<svg viewBox="0 0 920 540" width="920" height="540" xmlns="http://www.w3.org/2000/svg">
<rect width="920" height="540" rx="12" fill="#0d1117"/>
<text x="460" y="38" text-anchor="middle" font-family="JetBrains Mono, Fira Code, monospace" font-size="17" fill="#e6edf3" font-weight="bold">ACRO — Agent Decision Flow</text>
<text x="460" y="56" text-anchor="middle" font-family="JetBrains Mono, Fira Code, monospace" font-size="11" fill="#8b949e">Multi-agent pipeline from ingestion to feedback</text>
<defs><marker id="arr-170-118-220-118" markerWidth="8" markerHeight="6" refX="6" refY="3" orient="auto"><polygon points="0 0, 8 3, 0 6" fill="#4d9de0"/></marker></defs><line x1="170" y1="118" x2="220" y2="118" stroke="#4d9de0" stroke-width="1.5"  marker-end="url(#arr-170-118-220-118)"/>
<defs><marker id="arr-330-118-380-118" markerWidth="8" markerHeight="6" refX="6" refY="3" orient="auto"><polygon points="0 0, 8 3, 0 6" fill="#58d6e8"/></marker></defs><line x1="330" y1="118" x2="380" y2="118" stroke="#58d6e8" stroke-width="1.5"  marker-end="url(#arr-330-118-380-118)"/>
<defs><marker id="arr-490-118-540-118" markerWidth="8" markerHeight="6" refX="6" refY="3" orient="auto"><polygon points="0 0, 8 3, 0 6" fill="#58d6e8"/></marker></defs><line x1="490" y1="118" x2="540" y2="118" stroke="#58d6e8" stroke-width="1.5"  marker-end="url(#arr-490-118-540-118)"/>
<defs><marker id="arr-650-118-700-118" markerWidth="8" markerHeight="6" refX="6" refY="3" orient="auto"><polygon points="0 0, 8 3, 0 6" fill="#a78bfa"/></marker></defs><line x1="650" y1="118" x2="700" y2="118" stroke="#a78bfa" stroke-width="1.5"  marker-end="url(#arr-650-118-700-118)"/>
<defs><marker id="arr-755-146-755-230" markerWidth="8" markerHeight="6" refX="6" refY="3" orient="auto"><polygon points="0 0, 8 3, 0 6" fill="#a78bfa"/></marker></defs><line x1="755" y1="146" x2="755" y2="230" stroke="#a78bfa" stroke-width="1.5"  marker-end="url(#arr-755-146-755-230)"/>
<defs><marker id="arr-810-258-540-258" markerWidth="8" markerHeight="6" refX="6" refY="3" orient="auto"><polygon points="0 0, 8 3, 0 6" fill="#a78bfa"/></marker></defs><line x1="810" y1="258" x2="540" y2="258" stroke="#a78bfa" stroke-width="1.5"  marker-end="url(#arr-810-258-540-258)"/>
<defs><marker id="arr-650-258-380-258" markerWidth="8" markerHeight="6" refX="6" refY="3" orient="auto"><polygon points="0 0, 8 3, 0 6" fill="#e3b341"/></marker></defs><line x1="650" y1="258" x2="380" y2="258" stroke="#e3b341" stroke-width="1.5"  marker-end="url(#arr-650-258-380-258)"/>
<defs><marker id="arr-490-258-220-258" markerWidth="8" markerHeight="6" refX="6" refY="3" orient="auto"><polygon points="0 0, 8 3, 0 6" fill="#e3b341"/></marker></defs><line x1="490" y1="258" x2="220" y2="258" stroke="#e3b341" stroke-width="1.5"  marker-end="url(#arr-490-258-220-258)"/>
<defs><marker id="arr-275-286-225-370" markerWidth="8" markerHeight="6" refX="6" refY="3" orient="auto"><polygon points="0 0, 8 3, 0 6" fill="#3fb950"/></marker></defs><line x1="275" y1="286" x2="225" y2="370" stroke="#3fb950" stroke-width="1.5"  marker-end="url(#arr-275-286-225-370)"/>
<defs><marker id="arr-170-398-220-398" markerWidth="8" markerHeight="6" refX="6" refY="3" orient="auto"><polygon points="0 0, 8 3, 0 6" fill="#3fb950"/></marker></defs><line x1="170" y1="398" x2="220" y2="398" stroke="#3fb950" stroke-width="1.5"  marker-end="url(#arr-170-398-220-398)"/>
<defs><marker id="arr-330-398-380-398" markerWidth="8" markerHeight="6" refX="6" refY="3" orient="auto"><polygon points="0 0, 8 3, 0 6" fill="#f85149"/></marker></defs><line x1="330" y1="398" x2="380" y2="398" stroke="#f85149" stroke-width="1.5"  marker-end="url(#arr-330-398-380-398)"/>
<defs><marker id="arr-490-398-540-398" markerWidth="8" markerHeight="6" refX="6" refY="3" orient="auto"><polygon points="0 0, 8 3, 0 6" fill="#a78bfa"/></marker></defs><line x1="490" y1="398" x2="540" y2="398" stroke="#a78bfa" stroke-width="1.5"  marker-end="url(#arr-490-398-540-398)"/>
<defs><marker id="arr-650-398-700-398" markerWidth="8" markerHeight="6" refX="6" refY="3" orient="auto"><polygon points="0 0, 8 3, 0 6" fill="#3fb950"/></marker></defs><line x1="650" y1="398" x2="700" y2="398" stroke="#3fb950" stroke-width="1.5"  marker-end="url(#arr-650-398-700-398)"/>
<rect x="60" y="90" width="110" height="56" rx="8" fill="#4d9de022" stroke="#4d9de0" stroke-width="1.5"/>
<text x="115" y="110" text-anchor="middle" font-family="JetBrains Mono, Fira Code, monospace" font-size="12" fill="#e6edf3" font-weight="normal">Incident</text>
<text x="115" y="128" text-anchor="middle" font-family="JetBrains Mono, Fira Code, monospace" font-size="12" fill="#e6edf3" font-weight="normal">Ingested</text>
<rect x="220" y="90" width="110" height="56" rx="8" fill="#58d6e822" stroke="#58d6e8" stroke-width="1.5"/>
<text x="275" y="110" text-anchor="middle" font-family="JetBrains Mono, Fira Code, monospace" font-size="12" fill="#e6edf3" font-weight="normal">Normalize</text>
<text x="275" y="128" text-anchor="middle" font-family="JetBrains Mono, Fira Code, monospace" font-size="12" fill="#e6edf3" font-weight="normal">&amp; Enrich</text>
<rect x="380" y="90" width="110" height="56" rx="8" fill="#58d6e822" stroke="#58d6e8" stroke-width="1.5"/>
<text x="435" y="110" text-anchor="middle" font-family="JetBrains Mono, Fira Code, monospace" font-size="12" fill="#e6edf3" font-weight="normal">Detect</text>
<text x="435" y="128" text-anchor="middle" font-family="JetBrains Mono, Fira Code, monospace" font-size="12" fill="#e6edf3" font-weight="normal">Rule Match</text>
<rect x="540" y="90" width="110" height="56" rx="8" fill="#a78bfa22" stroke="#a78bfa" stroke-width="1.5"/>
<text x="595" y="110" text-anchor="middle" font-family="JetBrains Mono, Fira Code, monospace" font-size="12" fill="#e6edf3" font-weight="normal">Triage</text>
<text x="595" y="128" text-anchor="middle" font-family="JetBrains Mono, Fira Code, monospace" font-size="12" fill="#e6edf3" font-weight="normal">Agent</text>
<rect x="700" y="90" width="110" height="56" rx="8" fill="#a78bfa22" stroke="#a78bfa" stroke-width="1.5"/>
<text x="755" y="110" text-anchor="middle" font-family="JetBrains Mono, Fira Code, monospace" font-size="12" fill="#e6edf3" font-weight="normal">Prioritize</text>
<text x="755" y="128" text-anchor="middle" font-family="JetBrains Mono, Fira Code, monospace" font-size="12" fill="#e6edf3" font-weight="normal">Agent</text>
<rect x="700" y="230" width="110" height="56" rx="8" fill="#a78bfa22" stroke="#a78bfa" stroke-width="1.5"/>
<text x="755" y="250" text-anchor="middle" font-family="JetBrains Mono, Fira Code, monospace" font-size="12" fill="#e6edf3" font-weight="normal">Recommend</text>
<text x="755" y="268" text-anchor="middle" font-family="JetBrains Mono, Fira Code, monospace" font-size="12" fill="#e6edf3" font-weight="normal">Agent</text>
<rect x="540" y="230" width="110" height="56" rx="8" fill="#e3b34122" stroke="#e3b341" stroke-width="1.5"/>
<text x="595" y="250" text-anchor="middle" font-family="JetBrains Mono, Fira Code, monospace" font-size="12" fill="#e6edf3" font-weight="normal">Policy</text>
<text x="595" y="268" text-anchor="middle" font-family="JetBrains Mono, Fira Code, monospace" font-size="12" fill="#e6edf3" font-weight="normal">Check</text>
<rect x="380" y="230" width="110" height="56" rx="8" fill="#e3b34122" stroke="#e3b341" stroke-width="1.5"/>
<text x="435" y="250" text-anchor="middle" font-family="JetBrains Mono, Fira Code, monospace" font-size="12" fill="#e6edf3" font-weight="normal">Approval</text>
<text x="435" y="268" text-anchor="middle" font-family="JetBrains Mono, Fira Code, monospace" font-size="12" fill="#e6edf3" font-weight="normal">Gate</text>
<rect x="220" y="230" width="110" height="56" rx="8" fill="#3fb95022" stroke="#3fb950" stroke-width="1.5"/>
<text x="275" y="250" text-anchor="middle" font-family="JetBrains Mono, Fira Code, monospace" font-size="12" fill="#e6edf3" font-weight="normal">Execute</text>
<text x="275" y="268" text-anchor="middle" font-family="JetBrains Mono, Fira Code, monospace" font-size="12" fill="#e6edf3" font-weight="normal">Playbook</text>
<rect x="60" y="370" width="110" height="56" rx="8" fill="#3fb95022" stroke="#3fb950" stroke-width="1.5"/>
<text x="115" y="390" text-anchor="middle" font-family="JetBrains Mono, Fira Code, monospace" font-size="12" fill="#e6edf3" font-weight="normal">Verify</text>
<text x="115" y="408" text-anchor="middle" font-family="JetBrains Mono, Fira Code, monospace" font-size="12" fill="#e6edf3" font-weight="normal">Outcome</text>
<rect x="220" y="370" width="110" height="56" rx="8" fill="#f8514922" stroke="#f85149" stroke-width="1.5"/>
<text x="275" y="390" text-anchor="middle" font-family="JetBrains Mono, Fira Code, monospace" font-size="12" fill="#e6edf3" font-weight="normal">Rollback</text>
<text x="275" y="408" text-anchor="middle" font-family="JetBrains Mono, Fira Code, monospace" font-size="12" fill="#e6edf3" font-weight="normal">Planner</text>
<rect x="380" y="370" width="110" height="56" rx="8" fill="#a78bfa22" stroke="#a78bfa" stroke-width="1.5"/>
<text x="435" y="390" text-anchor="middle" font-family="JetBrains Mono, Fira Code, monospace" font-size="12" fill="#e6edf3" font-weight="normal">Report</text>
<text x="435" y="408" text-anchor="middle" font-family="JetBrains Mono, Fira Code, monospace" font-size="12" fill="#e6edf3" font-weight="normal">Agent</text>
<rect x="540" y="370" width="110" height="56" rx="8" fill="#3fb95022" stroke="#3fb950" stroke-width="1.5"/>
<text x="595" y="390" text-anchor="middle" font-family="JetBrains Mono, Fira Code, monospace" font-size="12" fill="#e6edf3" font-weight="normal">Audit</text>
<text x="595" y="408" text-anchor="middle" font-family="JetBrains Mono, Fira Code, monospace" font-size="12" fill="#e6edf3" font-weight="normal">Receipt</text>
<rect x="700" y="370" width="110" height="56" rx="8" fill="#58d6e822" stroke="#58d6e8" stroke-width="1.5"/>
<text x="755" y="390" text-anchor="middle" font-family="JetBrains Mono, Fira Code, monospace" font-size="12" fill="#e6edf3" font-weight="normal">Feedback</text>
<text x="755" y="408" text-anchor="middle" font-family="JetBrains Mono, Fira Code, monospace" font-size="12" fill="#e6edf3" font-weight="normal">Loop</text>
<rect x="60" y="472" width="12" height="12" rx="3" fill="#4d9de0"/>
<text x="77" y="483" text-anchor="start" font-family="JetBrains Mono, Fira Code, monospace" font-size="11" fill="#8b949e" font-weight="normal">Input</text>
<rect x="195" y="472" width="12" height="12" rx="3" fill="#58d6e8"/>
<text x="212" y="483" text-anchor="start" font-family="JetBrains Mono, Fira Code, monospace" font-size="11" fill="#8b949e" font-weight="normal">Processing</text>
<rect x="330" y="472" width="12" height="12" rx="3" fill="#a78bfa"/>
<text x="347" y="483" text-anchor="start" font-family="JetBrains Mono, Fira Code, monospace" font-size="11" fill="#8b949e" font-weight="normal">AI Agent</text>
<rect x="465" y="472" width="12" height="12" rx="3" fill="#e3b341"/>
<text x="482" y="483" text-anchor="start" font-family="JetBrains Mono, Fira Code, monospace" font-size="11" fill="#8b949e" font-weight="normal">Governance</text>
<rect x="600" y="472" width="12" height="12" rx="3" fill="#3fb950"/>
<text x="617" y="483" text-anchor="start" font-family="JetBrains Mono, Fira Code, monospace" font-size="11" fill="#8b949e" font-weight="normal">Output/Audit</text>
<rect x="735" y="472" width="12" height="12" rx="3" fill="#f85149"/>
<text x="752" y="483" text-anchor="start" font-family="JetBrains Mono, Fira Code, monospace" font-size="11" fill="#8b949e" font-weight="normal">Recovery</text>
</svg>
